<?xml version="1.0" encoding="UTF-8"?>
<svg width="36px" height="36px" viewBox="0 0 36 36" version="1.1" xmlns="http://www.w3.org/2000/svg" xmlns:xlink="http://www.w3.org/1999/xlink">
    <title>icon-机房地图图标-精密空调</title>
    <g id="icon-机房地图图标-精密空调" stroke="none" stroke-width="1" fill="none" fill-rule="evenodd">
        <rect id="矩形" fill="#FFFFFF" x="0" y="0" width="36" height="36" rx="4"></rect>
        <path d="M32,0 C34.209139,0 36,1.790861 36,4 L36,32 C36,34.209139 34.209139,36 32,36 L4,36 C1.790861,36 0,34.209139 0,32 L0,4 C0,1.790861 1.790861,0 4,0 L32,0 Z M32,1 L4,1 C2.34314575,1 1,2.34314575 1,4 L1,32 C1,33.6568542 2.34314575,35 4,35 L32,35 C33.6568542,35 35,33.6568542 35,32 L35,4 C35,2.34314575 33.6568542,1 32,1 Z" id="矩形" fill="#475A63" fill-rule="nonzero"></path>
        <path d="M31,2 C32.6568542,2 34,3.34314575 34,5 L34,25 C34,26.6568542 32.6568542,28 31,28 L5,28 C3.34314575,28 2,26.6568542 2,25 L2,5 C2,3.34314575 3.34314575,2 5,2 L31,2 Z M30.1333333,4 L5.86666667,4 C4.83573513,4 4,4.82081129 4,5.83333333 L4,24.1666667 C4,25.1791887 4.83573513,26 5.86666667,26 L30.1333333,26 C31.1642649,26 32,25.1791887 32,24.1666667 L32,5.83333333 C32,4.82081129 31.1642649,4 30.1333333,4 Z" id="矩形备份" fill="#475A63" fill-rule="nonzero"></path>
        <g id="编组" transform="translate(3.000000, 2.500000)">
            <rect id="矩形备份-2" stroke="#475A63" x="14.5" y="0.5" width="1" height="24" rx="0.5"></rect>
            <g id="编组-3" transform="translate(0.000000, 27.000000)" fill="#475A63">
                <path d="M13,0 C13.5522847,-1.01453063e-16 14,0.44771525 14,1 L14,3 C14,3.55228475 13.5522847,4 13,4 L1,4 C0.44771525,4 -4.87476137e-16,3.55228475 0,3 L0,1 C-6.76353751e-17,0.44771525 0.44771525,1.01453063e-16 1,0 L13,0 Z M4.5,0.5 L3.5,0.5 L3.5,3.5 L4.5,3.5 L4.5,0.5 Z M2.5,0.5 L1.5,0.5 L1.5,3.5 L2.5,3.5 L2.5,0.5 Z M6.5,0.5 L5.5,0.5 L5.5,3.5 L6.5,3.5 L6.5,0.5 Z M8.5,0.5 L7.5,0.5 L7.5,3.5 L8.5,3.5 L8.5,0.5 Z M10.5,0.5 L9.5,0.5 L9.5,3.5 L10.5,3.5 L10.5,0.5 Z M12.5,0.5 L11.5,0.5 L11.5,3.5 L12.5,3.5 L12.5,0.5 Z" id="形状结合"></path>
                <path d="M29,0 C29.5522847,-1.01453063e-16 30,0.44771525 30,1 L30,3 C30,3.55228475 29.5522847,4 29,4 L17,4 C16.4477153,4 16,3.55228475 16,3 L16,1 C16,0.44771525 16.4477153,1.01453063e-16 17,0 L29,0 Z M20.5,0.5 L19.5,0.5 L19.5,3.5 L20.5,3.5 L20.5,0.5 Z M18.5,0.5 L17.5,0.5 L17.5,3.5 L18.5,3.5 L18.5,0.5 Z M22.5,0.5 L21.5,0.5 L21.5,3.5 L22.5,3.5 L22.5,0.5 Z M24.5,0.5 L23.5,0.5 L23.5,3.5 L24.5,3.5 L24.5,0.5 Z M26.5,0.5 L25.5,0.5 L25.5,3.5 L26.5,3.5 L26.5,0.5 Z M28.5,0.5 L27.5,0.5 L27.5,3.5 L28.5,3.5 L28.5,0.5 Z" id="形状结合备份"></path>
            </g>
            <rect id="矩形备份-11" fill="#20C1FF" x="2.5" y="4.5" width="8" height="11" rx="2"></rect>
            <path d="M8.5,4.5 C9.6045695,4.5 10.5,5.3954305 10.5,6.5 L10.5,13.5 C10.5,14.6045695 9.6045695,15.5 8.5,15.5 L4.5,15.5 C3.3954305,15.5 2.5,14.6045695 2.5,13.5 L2.5,6.5 C2.5,5.3954305 3.3954305,4.5 4.5,4.5 L8.5,4.5 Z M8.5,6 L4.5,6 C4.22385763,6 4,6.22385763 4,6.5 L4,13.5 C4,13.7761424 4.22385763,14 4.5,14 L8.5,14 C8.77614237,14 9,13.7761424 9,13.5 L9,6.5 C9,6.22385763 8.77614237,6 8.5,6 Z" id="矩形备份-11" fill="#475A63" fill-rule="nonzero"></path>
        </g>
    </g>
</svg>