<?xml version="1.0" encoding="UTF-8"?>
<svg width="36px" height="36px" viewBox="0 0 36 36" version="1.1" xmlns="http://www.w3.org/2000/svg" xmlns:xlink="http://www.w3.org/1999/xlink">
    <title>icon-机房地图图标-机柜</title>
    <g id="icon-机房地图图标-机柜" stroke="none" stroke-width="1" fill="none" fill-rule="evenodd">
        <rect id="矩形" fill="#FFFFFF" x="0" y="0" width="36" height="36" rx="4"></rect>
        <path d="M32,0 C34.209139,0 36,1.790861 36,4 L36,32 C36,34.209139 34.209139,36 32,36 L4,36 C1.790861,36 0,34.209139 0,32 L0,4 C0,1.790861 1.790861,0 4,0 L32,0 Z M32,1 L4,1 C2.34314575,1 1,2.34314575 1,4 L1,32 C1,33.6568542 2.34314575,35 4,35 L32,35 C33.6568542,35 35,33.6568542 35,32 L35,4 C35,2.34314575 33.6568542,1 32,1 Z" id="矩形" fill="#475A63" fill-rule="nonzero"></path>
        <g id="编组" transform="translate(2.000000, 26.500000)">
            <path d="M30,0 C31.1045695,0 32,0.8954305 32,2 L32,5 C32,6.1045695 31.1045695,7 30,7 L2,7 C0.8954305,7 0,6.1045695 0,5 L0,2 C0,0.8954305 0.8954305,0 2,0 L30,0 Z M29.0666667,1 L2.93333333,1 C2.41786757,1 2,1.44771525 2,2 L2,5 C2,5.55228475 2.41786757,6 2.93333333,6 L29.0666667,6 C29.5821324,6 30,5.55228475 30,5 L30,2 C30,1.44771525 29.5821324,1 29.0666667,1 Z" id="矩形备份" fill="#475A63" fill-rule="nonzero"></path>
            <path d="M18,1.5 C18.5522847,1.5 19,1.94771525 19,2.5 L19,4.5 C19,5.05228475 18.5522847,5.5 18,5.5 L9,5.5 C8.44771525,5.5 8,5.05228475 8,4.5 L8,2.5 C8,1.94771525 8.44771525,1.5 9,1.5 L18,1.5 Z M10,2 L9,2 L9,5 L10,5 L10,2 Z M12,2 L11,2 L11,5 L12,5 L12,2 Z M14,2 L13,2 L13,5 L14,5 L14,2 Z M16,2 L15,2 L15,5 L16,5 L16,2 Z M18,2 L17,2 L17,5 L18,5 L18,2 Z" id="形状结合" fill="#475A63"></path>
            <rect id="矩形备份-2" fill="#20C1FF" x="3" y="1.5" width="4" height="4" rx="2"></rect>
            <rect id="矩形备份-3" fill="#20C1FF" x="20" y="1.5" width="4" height="4" rx="2"></rect>
            <rect id="矩形备份-4" fill="#20C1FF" x="25" y="1.5" width="4" height="4" rx="2"></rect>
        </g>
        <g id="编组" transform="translate(2.000000, 18.500000)">
            <path d="M30,0 C31.1045695,0 32,0.8954305 32,2 L32,5 C32,6.1045695 31.1045695,7 30,7 L2,7 C0.8954305,7 0,6.1045695 0,5 L0,2 C0,0.8954305 0.8954305,0 2,0 L30,0 Z M29.0666667,1 L2.93333333,1 C2.41786757,1 2,1.44771525 2,2 L2,5 C2,5.55228475 2.41786757,6 2.93333333,6 L29.0666667,6 C29.5821324,6 30,5.55228475 30,5 L30,2 C30,1.44771525 29.5821324,1 29.0666667,1 Z" id="矩形备份" fill="#475A63" fill-rule="nonzero"></path>
            <path d="M18,1.5 C18.5522847,1.5 19,1.94771525 19,2.5 L19,4.5 C19,5.05228475 18.5522847,5.5 18,5.5 L9,5.5 C8.44771525,5.5 8,5.05228475 8,4.5 L8,2.5 C8,1.94771525 8.44771525,1.5 9,1.5 L18,1.5 Z M10,2 L9,2 L9,5 L10,5 L10,2 Z M12,2 L11,2 L11,5 L12,5 L12,2 Z M14,2 L13,2 L13,5 L14,5 L14,2 Z M16,2 L15,2 L15,5 L16,5 L16,2 Z M18,2 L17,2 L17,5 L18,5 L18,2 Z" id="形状结合" fill="#475A63"></path>
            <rect id="矩形备份-2" fill="#20C1FF" x="3" y="1.5" width="4" height="4" rx="2"></rect>
            <rect id="矩形备份-3" fill="#20C1FF" x="20" y="1.5" width="4" height="4" rx="2"></rect>
            <rect id="矩形备份-4" fill="#20C1FF" x="25" y="1.5" width="4" height="4" rx="2"></rect>
        </g>
        <g id="编组" transform="translate(2.000000, 10.500000)">
            <path d="M30,0 C31.1045695,0 32,0.8954305 32,2 L32,5 C32,6.1045695 31.1045695,7 30,7 L2,7 C0.8954305,7 0,6.1045695 0,5 L0,2 C0,0.8954305 0.8954305,0 2,0 L30,0 Z M29.0666667,1 L2.93333333,1 C2.41786757,1 2,1.44771525 2,2 L2,5 C2,5.55228475 2.41786757,6 2.93333333,6 L29.0666667,6 C29.5821324,6 30,5.55228475 30,5 L30,2 C30,1.44771525 29.5821324,1 29.0666667,1 Z" id="矩形备份" fill="#475A63" fill-rule="nonzero"></path>
            <path d="M18,1.5 C18.5522847,1.5 19,1.94771525 19,2.5 L19,4.5 C19,5.05228475 18.5522847,5.5 18,5.5 L9,5.5 C8.44771525,5.5 8,5.05228475 8,4.5 L8,2.5 C8,1.94771525 8.44771525,1.5 9,1.5 L18,1.5 Z M10,2 L9,2 L9,5 L10,5 L10,2 Z M12,2 L11,2 L11,5 L12,5 L12,2 Z M14,2 L13,2 L13,5 L14,5 L14,2 Z M16,2 L15,2 L15,5 L16,5 L16,2 Z M18,2 L17,2 L17,5 L18,5 L18,2 Z" id="形状结合" fill="#475A63"></path>
            <rect id="矩形备份-2" fill="#20C1FF" x="3" y="1.5" width="4" height="4" rx="2"></rect>
            <rect id="矩形备份-3" fill="#20C1FF" x="20" y="1.5" width="4" height="4" rx="2"></rect>
            <rect id="矩形备份-4" fill="#20C1FF" x="25" y="1.5" width="4" height="4" rx="2"></rect>
        </g>
        <g id="编组" transform="translate(2.000000, 2.500000)">
            <path d="M30,0 C31.1045695,0 32,0.8954305 32,2 L32,5 C32,6.1045695 31.1045695,7 30,7 L2,7 C0.8954305,7 0,6.1045695 0,5 L0,2 C0,0.8954305 0.8954305,0 2,0 L30,0 Z M29.0666667,1 L2.93333333,1 C2.41786757,1 2,1.44771525 2,2 L2,5 C2,5.55228475 2.41786757,6 2.93333333,6 L29.0666667,6 C29.5821324,6 30,5.55228475 30,5 L30,2 C30,1.44771525 29.5821324,1 29.0666667,1 Z" id="矩形备份" fill="#475A63" fill-rule="nonzero"></path>
            <path d="M18,1.5 C18.5522847,1.5 19,1.94771525 19,2.5 L19,4.5 C19,5.05228475 18.5522847,5.5 18,5.5 L9,5.5 C8.44771525,5.5 8,5.05228475 8,4.5 L8,2.5 C8,1.94771525 8.44771525,1.5 9,1.5 L18,1.5 Z M10,2 L9,2 L9,5 L10,5 L10,2 Z M12,2 L11,2 L11,5 L12,5 L12,2 Z M14,2 L13,2 L13,5 L14,5 L14,2 Z M16,2 L15,2 L15,5 L16,5 L16,2 Z M18,2 L17,2 L17,5 L18,5 L18,2 Z" id="形状结合" fill="#475A63"></path>
            <rect id="矩形备份-2" fill="#20C1FF" x="3" y="1.5" width="4" height="4" rx="2"></rect>
            <rect id="矩形备份-3" fill="#20C1FF" x="20" y="1.5" width="4" height="4" rx="2"></rect>
            <rect id="矩形备份-4" fill="#20C1FF" x="25" y="1.5" width="4" height="4" rx="2"></rect>
        </g>
    </g>
</svg>