<?xml version="1.0" encoding="UTF-8"?>
<svg width="36px" height="36px" viewBox="0 0 36 36" version="1.1" xmlns="http://www.w3.org/2000/svg" xmlns:xlink="http://www.w3.org/1999/xlink">
    <title>icon-机房地图图标-门</title>
    <g id="icon-机房地图图标-门" stroke="none" stroke-width="1" fill="none" fill-rule="evenodd">
        <rect id="矩形" fill="#FFFFFF" x="0" y="0" width="36" height="36" rx="4"></rect>
        <path d="M32,0 C34.209139,0 36,1.790861 36,4 L36,32 C36,34.209139 34.209139,36 32,36 L4,36 C1.790861,36 0,34.209139 0,32 L0,4 C0,1.790861 1.790861,0 4,0 L32,0 Z M32,1 L4,1 C2.34314575,1 1,2.34314575 1,4 L1,32 C1,33.6568542 2.34314575,35 4,35 L32,35 C33.6568542,35 35,33.6568542 35,32 L35,4 C35,2.34314575 33.6568542,1 32,1 Z" id="矩形" fill="#475A63" fill-rule="nonzero"></path>
        <rect id="矩形备份" fill="#475A63" x="18" y="2" width="16" height="32" rx="2"></rect>
        <rect id="矩形备份-2" fill="#475A63" x="2" y="2" width="15" height="32" rx="2"></rect>
        <circle id="椭圆形" fill="#FFFFFF" cx="21.5" cy="17.5" r="1.5"></circle>
        <path d="M21.5,16 C22.3284271,16 23,16.6715729 23,17.5 C23,18.3284271 22.3284271,19 21.5,19 C20.6715729,19 20,18.3284271 20,17.5 C20,16.6715729 20.6715729,16 21.5,16 Z M21.5,16.5 C20.9477153,16.5 20.5,16.9477153 20.5,17.5 C20.5,18.0522847 20.9477153,18.5 21.5,18.5 C22.0522847,18.5 22.5,18.0522847 22.5,17.5 C22.5,16.9477153 22.0522847,16.5 21.5,16.5 Z" id="椭圆形" fill="#263441" fill-rule="nonzero"></path>
        <circle id="椭圆形备份" fill="#FFFFFF" cx="14.5" cy="17.5" r="1.5"></circle>
        <path d="M14.5,16 C15.3284271,16 16,16.6715729 16,17.5 C16,18.3284271 15.3284271,19 14.5,19 C13.6715729,19 13,18.3284271 13,17.5 C13,16.6715729 13.6715729,16 14.5,16 Z M14.5,16.5 C13.9477153,16.5 13.5,16.9477153 13.5,17.5 C13.5,18.0522847 13.9477153,18.5 14.5,18.5 C15.0522847,18.5 15.5,18.0522847 15.5,17.5 C15.5,16.9477153 15.0522847,16.5 14.5,16.5 Z" id="椭圆形备份" fill="#263441" fill-rule="nonzero"></path>
    </g>
</svg>