<?xml version="1.0" encoding="UTF-8"?>
<svg width="36px" height="36px" viewBox="0 0 36 36" version="1.1" xmlns="http://www.w3.org/2000/svg" xmlns:xlink="http://www.w3.org/1999/xlink">
    <title>icon-机房地图图标-电箱</title>
    <g id="icon-机房地图图标-电箱" stroke="none" stroke-width="1" fill="none" fill-rule="evenodd">
        <rect id="矩形" fill="#FFFFFF" x="0" y="0" width="36" height="36" rx="4"></rect>
        <path d="M32,0 C34.209139,0 36,1.790861 36,4 L36,32 C36,34.209139 34.209139,36 32,36 L4,36 C1.790861,36 0,34.209139 0,32 L0,4 C0,1.790861 1.790861,0 4,0 L32,0 Z M32,1 L4,1 C2.34314575,1 1,2.34314575 1,4 L1,32 C1,33.6568542 2.34314575,35 4,35 L32,35 C33.6568542,35 35,33.6568542 35,32 L35,4 C35,2.34314575 33.6568542,1 32,1 Z" id="矩形" fill="#475A63" fill-rule="nonzero"></path>
        <path d="M31,24 C31.5522847,24 32,24.4477153 32,25 L32,31 C32,31.5522847 31.5522847,32 31,32 L5,32 C4.44771525,32 4,31.5522847 4,31 L4,25 C4,24.4477153 4.44771525,24 5,24 L31,24 Z M30.5,24.5 L29.5,24.5 L29.5,31.5 L30.5,31.5 L30.5,24.5 Z M28.5,24.5 L27.5,24.5 L27.5,31.5 L28.5,31.5 L28.5,24.5 Z M26.5,24.5 L25.5,24.5 L25.5,31.5 L26.5,31.5 L26.5,24.5 Z M24.5,24.5 L23.5,24.5 L23.5,31.5 L24.5,31.5 L24.5,24.5 Z M22.5,24.5 L21.5,24.5 L21.5,31.5 L22.5,31.5 L22.5,24.5 Z M20.5,24.5 L19.5,24.5 L19.5,31.5 L20.5,31.5 L20.5,24.5 Z M18.5,24.5 L17.5,24.5 L17.5,31.5 L18.5,31.5 L18.5,24.5 Z M16.5,24.5 L15.5,24.5 L15.5,31.5 L16.5,31.5 L16.5,24.5 Z M14.5,24.5 L13.5,24.5 L13.5,31.5 L14.5,31.5 L14.5,24.5 Z M12.5,24.5 L11.5,24.5 L11.5,31.5 L12.5,31.5 L12.5,24.5 Z M10.5,24.5 L9.5,24.5 L9.5,31.5 L10.5,31.5 L10.5,24.5 Z M8.5,24.5 L7.5,24.5 L7.5,31.5 L8.5,31.5 L8.5,24.5 Z M6.5,24.5 L5.5,24.5 L5.5,31.5 L6.5,31.5 L6.5,24.5 Z" id="形状结合备份-2" fill="#475A63"></path>
        <path d="M31,14 C31.5522847,14 32,14.4477153 32,15 L32,21 C32,21.5522847 31.5522847,22 31,22 L5,22 C4.44771525,22 4,21.5522847 4,21 L4,15 C4,14.4477153 4.44771525,14 5,14 L31,14 Z M30.5,14.5 L29.5,14.5 L29.5,21.5 L30.5,21.5 L30.5,14.5 Z M28.5,14.5 L27.5,14.5 L27.5,21.5 L28.5,21.5 L28.5,14.5 Z M26.5,14.5 L25.5,14.5 L25.5,21.5 L26.5,21.5 L26.5,14.5 Z M24.5,14.5 L23.5,14.5 L23.5,21.5 L24.5,21.5 L24.5,14.5 Z M22.5,14.5 L21.5,14.5 L21.5,21.5 L22.5,21.5 L22.5,14.5 Z M20.5,14.5 L19.5,14.5 L19.5,21.5 L20.5,21.5 L20.5,14.5 Z M18.5,14.5 L17.5,14.5 L17.5,21.5 L18.5,21.5 L18.5,14.5 Z M16.5,14.5 L15.5,14.5 L15.5,21.5 L16.5,21.5 L16.5,14.5 Z M14.5,14.5 L13.5,14.5 L13.5,21.5 L14.5,21.5 L14.5,14.5 Z M12.5,14.5 L11.5,14.5 L11.5,21.5 L12.5,21.5 L12.5,14.5 Z M10.5,14.5 L9.5,14.5 L9.5,21.5 L10.5,21.5 L10.5,14.5 Z M8.5,14.5 L7.5,14.5 L7.5,21.5 L8.5,21.5 L8.5,14.5 Z M6.5,14.5 L5.5,14.5 L5.5,21.5 L6.5,21.5 L6.5,14.5 Z" id="形状结合备份" fill="#475A63"></path>
        <path d="M31,4 C31.5522847,4 32,4.44771525 32,5 L32,11 C32,11.5522847 31.5522847,12 31,12 L5,12 C4.44771525,12 4,11.5522847 4,11 L4,5 C4,4.44771525 4.44771525,4 5,4 L31,4 Z M30.5,4.5 L29.5,4.5 L29.5,11.5 L30.5,11.5 L30.5,4.5 Z M28.5,4.5 L27.5,4.5 L27.5,11.5 L28.5,11.5 L28.5,4.5 Z M26.5,4.5 L25.5,4.5 L25.5,11.5 L26.5,11.5 L26.5,4.5 Z M24.5,4.5 L23.5,4.5 L23.5,11.5 L24.5,11.5 L24.5,4.5 Z M22.5,4.5 L21.5,4.5 L21.5,11.5 L22.5,11.5 L22.5,4.5 Z M20.5,4.5 L19.5,4.5 L19.5,11.5 L20.5,11.5 L20.5,4.5 Z M18.5,4.5 L17.5,4.5 L17.5,11.5 L18.5,11.5 L18.5,4.5 Z M16.5,4.5 L15.5,4.5 L15.5,11.5 L16.5,11.5 L16.5,4.5 Z M14.5,4.5 L13.5,4.5 L13.5,11.5 L14.5,11.5 L14.5,4.5 Z M12.5,4.5 L11.5,4.5 L11.5,11.5 L12.5,11.5 L12.5,4.5 Z M10.5,4.5 L9.5,4.5 L9.5,11.5 L10.5,11.5 L10.5,4.5 Z M8.5,4.5 L7.5,4.5 L7.5,11.5 L8.5,11.5 L8.5,4.5 Z M6.5,4.5 L5.5,4.5 L5.5,11.5 L6.5,11.5 L6.5,4.5 Z" id="形状结合" fill="#475A63"></path>
    </g>
</svg>