<?xml version="1.0" encoding="UTF-8"?>
<svg width="36px" height="36px" viewBox="0 0 36 36" version="1.1" xmlns="http://www.w3.org/2000/svg" xmlns:xlink="http://www.w3.org/1999/xlink">
    <title>icon-机房地图图标-电表箱</title>
    <g id="icon-机房地图图标-电表箱" stroke="none" stroke-width="1" fill="none" fill-rule="evenodd">
        <rect id="矩形" fill="#FFFFFF" x="0" y="0" width="36" height="36" rx="4"></rect>
        <path d="M32,0 C34.209139,0 36,1.790861 36,4 L36,32 C36,34.209139 34.209139,36 32,36 L4,36 C1.790861,36 0,34.209139 0,32 L0,4 C0,1.790861 1.790861,0 4,0 L32,0 Z M32,1 L4,1 C2.34314575,1 1,2.34314575 1,4 L1,32 C1,33.6568542 2.34314575,35 4,35 L32,35 C33.6568542,35 35,33.6568542 35,32 L35,4 C35,2.34314575 33.6568542,1 32,1 Z" id="矩形" fill="#475A63" fill-rule="nonzero"></path>
        <path d="M4,0 L32,0 C34.209139,-4.05812251e-16 36,1.790861 36,4 L36,28 L36,28 L0,28 L0,4 C-2.705415e-16,1.790861 1.790861,-1.37054459e-15 4,0 Z" id="矩形备份" fill="#DCF4FF"></path>
        <path d="M32,0 C34.209139,0 36,1.790861 36,4 L36,28 L0,28 L0,4 C0,1.790861 1.790861,0 4,0 L32,0 Z M32,1 L4,1 C2.34314575,1 1,2.34314575 1,4 L1,27 L35,27 L35,4 C35,2.40231912 33.75108,1.09633912 32.1762728,1.00509269 L32,1 Z" id="矩形备份" fill="#475A63" fill-rule="nonzero"></path>
        <rect id="矩形备份-11" fill="#20C1FF" x="12.2727273" y="6" width="11.4545455" height="9" rx="2"></rect>
        <path d="M21.7272727,6 C22.8318422,6 23.7272727,6.8954305 23.7272727,8 L23.7272727,13 C23.7272727,14.1045695 22.8318422,15 21.7272727,15 L14.2727273,15 C13.1681578,15 12.2727273,14.1045695 12.2727273,13 L12.2727273,8 C12.2727273,6.8954305 13.1681578,6 14.2727273,6 L21.7272727,6 Z M21.7272727,7.5 L14.2727273,7.5 C13.9965849,7.5 13.7727273,7.72385763 13.7727273,8 L13.7727273,13 C13.7727273,13.2761424 13.9965849,13.5 14.2727273,13.5 L21.7272727,13.5 C22.0034151,13.5 22.2272727,13.2761424 22.2272727,13 L22.2272727,8 C22.2272727,7.72385763 22.0034151,7.5 21.7272727,7.5 Z" id="矩形备份-11" fill="#475A63" fill-rule="nonzero"></path>
        <g id="编组" transform="translate(9.000000, 18.000000)">
            <rect id="矩形备份-12" fill="#DB1E1E" x="0" y="0" width="2" height="2" rx="1"></rect>
            <rect id="矩形备份-13" fill="#FEA60F" x="4" y="0" width="2" height="2" rx="1"></rect>
            <rect id="矩形备份-14" fill="#20C1FF" x="8" y="0" width="2" height="2" rx="1"></rect>
            <rect id="矩形备份-15" fill="#FEA60F" x="12" y="0" width="2" height="2" rx="1"></rect>
            <rect id="矩形备份-16" fill="#11E447" x="16" y="0" width="2" height="2" rx="1"></rect>
        </g>
    </g>
</svg>