<?xml version="1.0" encoding="UTF-8"?>
<svg width="36px" height="36px" viewBox="0 0 36 36" version="1.1" xmlns="http://www.w3.org/2000/svg" xmlns:xlink="http://www.w3.org/1999/xlink">
    <title>icon-机房地图图标-灯光</title>
    <g id="icon-机房地图图标-灯光" stroke="none" stroke-width="1" fill="none" fill-rule="evenodd">
        <g id="编组-2">
            <rect id="矩形" fill="#FFFFFF" x="0" y="0" width="36" height="36" rx="4"></rect>
            <path d="M32,0 C34.209139,0 36,1.790861 36,4 L36,32 C36,34.209139 34.209139,36 32,36 L4,36 C1.790861,36 0,34.209139 0,32 L0,4 C0,1.790861 1.790861,0 4,0 L32,0 Z M32,1 L4,1 C2.34314575,1 1,2.34314575 1,4 L1,32 C1,33.6568542 2.34314575,35 4,35 L32,35 C33.6568542,35 35,33.6568542 35,32 L35,4 C35,2.34314575 33.6568542,1 32,1 Z" id="矩形" fill="#475A63" fill-rule="nonzero"></path>
        </g>
        <rect id="矩形备份" fill="#475A63" x="3" y="3" width="30" height="30" rx="4"></rect>
        <g id="dengpao" transform="translate(11.500000, 7.000000)" fill="#FFFFFF" fill-rule="nonzero">
            <path d="M3.5,15.0000838 L3.5,19.0502672 C3.5,20.6896517 4.81303299,22.0233689 6.4268,22.0233689 L8.57329795,22.0233689 C10.1870405,22.0233689 11.5,20.6896517 11.5,19.0502672 L11.5,15 M9.08071374,20.6216817 L6.30564949,20.6216817 C5.86072367,20.6216817 5.5,20.2586336 5.5,19.8108408 C5.5,19.3630481 5.86072367,19 6.30564949,19 L9.08071374,19 C9.52563957,19 9.88636324,19.3630481 9.88636324,19.8108408 C9.88636324,20.2586336 9.52563957,20.6216817 9.08071374,20.6216817 Z M9.08071374,17.6216817 L6.30564949,17.6216817 C5.86072367,17.6216817 5.5,17.2586336 5.5,16.8108408 C5.5,16.3630481 5.86072367,16 6.30564949,16 L9.08071374,16 C9.52563957,16 9.88636324,16.3630481 9.88636324,16.8108408 C9.88636324,17.2586336 9.52563957,17.6216817 9.08071374,17.6216817 Z" id="形状"></path>
            <path d="M7.5,-1 C2.80557963,-1 -1,2.80557963 -1,7.5 C-1,12.1944204 2.80557963,16 7.5,16 C12.1944204,16 16,12.1944204 16,7.5 C16,2.80557963 12.1944204,-1 7.5,-1 Z M7.5,1 C11.0898509,1 14,3.91014913 14,7.5 C14,11.0898509 11.0898509,14 7.5,14 C3.91014913,14 1,11.0898509 1,7.5 C1,3.91014913 3.91014913,1 7.5,1 Z" id="椭圆形"></path>
            <path d="M12.4013093,8.49128697 C12.0574465,8.49128697 11.7786597,8.21070377 11.7786597,7.86462525 C11.7786941,7.63845053 11.7594691,7.41268891 11.7211956,7.18981854 C11.4945982,5.87600634 10.6284123,4.78047588 9.40429768,4.25936196 C9.0874945,4.12453009 8.9393314,3.75682841 9.07332145,3.43809176 C9.20729006,3.11935511 9.57285197,2.97034518 9.88933352,3.10498283 C11.5052548,3.79284544 12.6488124,5.2397631 12.948162,6.9755291 C12.9986654,7.26916483 13.0240242,7.56662272 13.023959,7.86462525 C13.023959,8.21068219 12.7451506,8.49128697 12.4013093,8.49128697 L12.4013093,8.49128697 Z" id="路径"></path>
        </g>
    </g>
</svg>