<?xml version="1.0" encoding="UTF-8"?>
<svg width="36px" height="36px" viewBox="0 0 36 36" version="1.1" xmlns="http://www.w3.org/2000/svg" xmlns:xlink="http://www.w3.org/1999/xlink">
    <title>icon-机房地图图标-温湿度传感器</title>
    <g id="icon-机房地图图标-温湿度传感器" stroke="none" stroke-width="1" fill="none" fill-rule="evenodd">
        <g id="编组-2">
            <rect id="矩形" fill="#FFFFFF" x="0" y="0" width="36" height="36" rx="4"></rect>
            <path d="M32,0 C34.209139,0 36,1.790861 36,4 L36,32 C36,34.209139 34.209139,36 32,36 L4,36 C1.790861,36 0,34.209139 0,32 L0,4 C0,1.790861 1.790861,0 4,0 L32,0 Z M32,1 L4,1 C2.34314575,1 1,2.34314575 1,4 L1,32 C1,33.6568542 2.34314575,35 4,35 L32,35 C33.6568542,35 35,33.6568542 35,32 L35,4 C35,2.34314575 33.6568542,1 32,1 Z" id="矩形" fill="#475A63" fill-rule="nonzero"></path>
            <rect id="矩形备份" fill="#475A63" x="3" y="3" width="30" height="30" rx="4"></rect>
            <g id="编组" transform="translate(18.000000, 18.000000) rotate(-330.000000) translate(-18.000000, -18.000000) translate(10.000000, 5.000000)">
                <path d="M8,6.87365641e-13 C9.65685425,6.87061282e-13 11,1.34314575 11,3 L11,10 C11,10.1916934 10.9820209,10.3791875 10.9476569,10.560888 C13.9073578,11.7343969 16,14.6228171 16,18 C16,22.418278 12.418278,26 8,26 C3.581722,26 -1.85744011e-13,22.418278 -1.85744011e-13,18 C-1.85744011e-13,14.6228171 2.09264217,11.7343969 5.05197509,10.5606909 C5.01797913,10.3791875 5,10.1916934 5,10 L5,3 C5,1.34314575 6.34314575,6.87670001e-13 8,6.87365641e-13 Z" id="形状结合" fill="#FFFFFF"></path>
                <path d="M8,6.87365641e-13 C9.65685425,6.87365641e-13 11,1.34314575 11,3 L11,10 C11,10.1916934 10.9820209,10.3791875 10.9476569,10.560888 C13.9073578,11.7343969 16,14.6228171 16,18 C16,22.418278 12.418278,26 8,26 C3.581722,26 -1.85744011e-13,22.418278 -1.85744011e-13,18 C-1.85744011e-13,14.6228171 2.09264217,11.7343969 5.05197509,10.5606909 C5.01797913,10.3791875 5,10.1916934 5,10 L5,3 C5,1.34314575 6.34314575,6.87365641e-13 8,6.87365641e-13 Z M8,1 C6.8954305,1 6,1.8954305 6,3 L6,10 C6,10.127312 6.01176945,10.2531904 6.0348825,10.3765903 L6.18657541,11.1864743 L5.42064897,11.4902497 C2.77419605,12.5398638 1,15.1045102 1,18 C1,21.8659932 4.13400675,25 8,25 C11.8659932,25 15,21.8659932 15,18 C15,15.1044331 13.2257394,12.5398745 10.5790761,11.4904838 L9.81166671,11.1862092 L9.96507499,10.3750581 C9.98822557,10.2526486 10,10.1273429 10,10 L10,3 C10,1.8954305 9.1045695,1 8,1 Z" id="形状结合" fill="#FFFFFF" fill-rule="nonzero"></path>
                <path d="M8,4 C8.41421356,4 8.75,4.33578644 8.75,4.75 L8.74987959,13.0558571 C11.15557,13.4176686 13,15.4934395 13,18 C13,20.7614237 10.7614237,23 8,23 C5.23857625,23 3,20.7614237 3,18 C3,15.4937872 4.84391833,13.4182445 7.24911933,13.0560078 L7.25,4.75 C7.25,4.33578644 7.58578644,4 8,4 Z" id="形状结合" fill="#475A63"></path>
                <path d="M3.10059494,19.0014388 C3.88255179,19.4954507 4.94548039,19.51492 6.28938074,19.0598468 C8.30523126,18.377237 11.5191762,15.2099694 12.9894049,17.73464 C13.1603337,19.3450747 12.1296486,21.3108191 10.8029991,22.153975 C7.62465043,24.1739835 5.32261419,22.4008322 4.41786894,21.5266532 C3.72523617,20.8574207 3.28614484,20.0156825 3.10059494,19.0014388 Z" id="路径" fill="#11E447"></path>
            </g>
        </g>
    </g>
</svg>