<?xml version="1.0" encoding="UTF-8"?>
<svg width="36px" height="36px" viewBox="0 0 36 36" version="1.1" xmlns="http://www.w3.org/2000/svg" xmlns:xlink="http://www.w3.org/1999/xlink">
    <title>icon-机房地图图标-ups空调</title>
    <g id="icon-机房地图图标-ups空调" stroke="none" stroke-width="1" fill="none" fill-rule="evenodd">
        <rect id="矩形" fill="#FFFFFF" x="0" y="0" width="36" height="36" rx="4"></rect>
        <path d="M32,0 C34.209139,0 36,1.790861 36,4 L36,32 C36,34.209139 34.209139,36 32,36 L4,36 C1.790861,36 0,34.209139 0,32 L0,4 C0,1.790861 1.790861,0 4,0 L32,0 Z M32,1 L4,1 C2.34314575,1 1,2.34314575 1,4 L1,32 C1,33.6568542 2.34314575,35 4,35 L32,35 C33.6568542,35 35,33.6568542 35,32 L35,4 C35,2.34314575 33.6568542,1 32,1 Z" id="矩形" fill="#475A63" fill-rule="nonzero"></path>
        <path d="M32,3.5 C32.5522847,3.5 33,3.94771525 33,4.5 L33,10.5 C33,11.0522847 32.5522847,11.5 32,11.5 L4,11.5 C3.44771525,11.5 3,11.0522847 3,10.5 L3,4.5 C3,3.94771525 3.44771525,3.5 4,3.5 L32,3.5 Z M30.5,4 L29.5,4 L29.5,11 L30.5,11 L30.5,4 Z M28.5,4 L27.5,4 L27.5,11 L28.5,11 L28.5,4 Z M26.5,4 L25.5,4 L25.5,11 L26.5,11 L26.5,4 Z M24.5,4 L23.5,4 L23.5,11 L24.5,11 L24.5,4 Z M22.5,4 L21.5,4 L21.5,11 L22.5,11 L22.5,4 Z M20.5,4 L19.5,4 L19.5,11 L20.5,11 L20.5,4 Z M18.5,4 L17.5,4 L17.5,11 L18.5,11 L18.5,4 Z M16.5,4 L15.5,4 L15.5,11 L16.5,11 L16.5,4 Z M14.5,4 L13.5,4 L13.5,11 L14.5,11 L14.5,4 Z M12.5,4 L11.5,4 L11.5,11 L12.5,11 L12.5,4 Z M10.5,4 L9.5,4 L9.5,11 L10.5,11 L10.5,4 Z M8.5,4 L7.5,4 L7.5,11 L8.5,11 L8.5,4 Z M6.5,4 L5.5,4 L5.5,11 L6.5,11 L6.5,4 Z" id="形状结合" fill="#475A63"></path>
        <rect id="形状结合备份-2" fill="#475A63" x="3" y="12.5" width="30" height="11" rx="1"></rect>
        <path d="M32,24.5 C32.5522847,24.5 33,24.9477153 33,25.5 L33,31.5 C33,32.0522847 32.5522847,32.5 32,32.5 L4,32.5 C3.44771525,32.5 3,32.0522847 3,31.5 L3,25.5 C3,24.9477153 3.44771525,24.5 4,24.5 L32,24.5 Z M30.5,25 L29.5,25 L29.5,32 L30.5,32 L30.5,25 Z M28.5,25 L27.5,25 L27.5,32 L28.5,32 L28.5,25 Z M26.5,25 L25.5,25 L25.5,32 L26.5,32 L26.5,25 Z M24.5,25 L23.5,25 L23.5,32 L24.5,32 L24.5,25 Z M22.5,25 L21.5,25 L21.5,32 L22.5,32 L22.5,25 Z M20.5,25 L19.5,25 L19.5,32 L20.5,32 L20.5,25 Z M18.5,25 L17.5,25 L17.5,32 L18.5,32 L18.5,25 Z M16.5,25 L15.5,25 L15.5,32 L16.5,32 L16.5,25 Z M14.5,25 L13.5,25 L13.5,32 L14.5,32 L14.5,25 Z M12.5,25 L11.5,25 L11.5,32 L12.5,32 L12.5,25 Z M10.5,25 L9.5,25 L9.5,32 L10.5,32 L10.5,25 Z M8.5,25 L7.5,25 L7.5,32 L8.5,32 L8.5,25 Z M6.5,25 L5.5,25 L5.5,32 L6.5,32 L6.5,25 Z" id="形状结合备份" fill="#475A63"></path>
        <rect id="矩形备份-11" fill="#20C1FF" x="13.8636364" y="14.5" width="8.27272727" height="7" rx="2"></rect>
        <path d="M20.1363636,14.5 C21.2409331,14.5 22.1363636,15.3954305 22.1363636,16.5 L22.1363636,19.5 C22.1363636,20.6045695 21.2409331,21.5 20.1363636,21.5 L15.8636364,21.5 C14.7590669,21.5 13.8636364,20.6045695 13.8636364,19.5 L13.8636364,16.5 C13.8636364,15.3954305 14.7590669,14.5 15.8636364,14.5 L20.1363636,14.5 Z M20.1363636,16 L15.8636364,16 C15.587494,16 15.3636364,16.2238576 15.3636364,16.5 L15.3636364,19.5 C15.3636364,19.7761424 15.587494,20 15.8636364,20 L20.1363636,20 C20.412506,20 20.6363636,19.7761424 20.6363636,19.5 L20.6363636,16.5 C20.6363636,16.2238576 20.412506,16 20.1363636,16 Z" id="矩形备份-11" fill="#475A63" fill-rule="nonzero"></path>
        <path d="M20.1363636,14 L15.8636364,14 C14.4829245,14 13.3636364,15.1192881 13.3636364,16.5 L13.3636364,19.5 C13.3636364,20.8807119 14.4829245,22 15.8636364,22 L20.1363636,22 C21.5170755,22 22.6363636,20.8807119 22.6363636,19.5 L22.6363636,16.5 C22.6363636,15.1192881 21.5170755,14 20.1363636,14 Z M20.1363636,15 C20.9647908,15 21.6363636,15.6715729 21.6363636,16.5 L21.6363636,19.5 C21.6363636,20.3284271 20.9647908,21 20.1363636,21 L15.8636364,21 C15.0352092,21 14.3636364,20.3284271 14.3636364,19.5 L14.3636364,16.5 C14.3636364,15.6715729 15.0352092,15 15.8636364,15 L20.1363636,15 Z" id="矩形备份-11" fill="#FFFFFF" fill-rule="nonzero"></path>
    </g>
</svg>