<?xml version="1.0" encoding="UTF-8"?>
<svg width="36px" height="36px" viewBox="0 0 36 36" version="1.1" xmlns="http://www.w3.org/2000/svg" xmlns:xlink="http://www.w3.org/1999/xlink">
    <title>icon-机房地图图标-ups</title>
    <g id="icon-机房地图图标-ups" stroke="none" stroke-width="1" fill="none" fill-rule="evenodd">
        <rect id="矩形" fill="#FFFFFF" x="0" y="0" width="36" height="36" rx="4"></rect>
        <path d="M32,0 C34.209139,0 36,1.790861 36,4 L36,32 C36,34.209139 34.209139,36 32,36 L4,36 C1.790861,36 0,34.209139 0,32 L0,4 C0,1.790861 1.790861,0 4,0 L32,0 Z M32,1 L4,1 C2.34314575,1 1,2.34314575 1,4 L1,32 C1,33.6568542 2.34314575,35 4,35 L32,35 C33.6568542,35 35,33.6568542 35,32 L35,4 C35,2.34314575 33.6568542,1 32,1 Z" id="矩形" fill="#475A63" fill-rule="nonzero"></path>
        <path d="M31,2 C32.6568542,2 34,3.34314575 34,5 L34,31 C34,32.6568542 32.6568542,34 31,34 L5,34 C3.34314575,34 2,32.6568542 2,31 L2,5 C2,3.34314575 3.34314575,2 5,2 L31,2 Z M31.018518,4 L28.944444,4 L28.944444,33 L31.018518,33 L31.018518,4 Z M26.944444,4 L24.87037,4 L24.87037,33 L26.944444,33 L26.944444,4 Z M22.87037,4 L20.796296,4 L20.796296,33 L22.87037,33 L22.87037,4 Z M18.796296,4 L16.722222,4 L16.722222,33 L18.796296,33 L18.796296,4 Z M14.722222,4 L12.648148,4 L12.648148,33 L14.722222,33 L14.722222,4 Z M10.648148,4 L8.574074,4 L8.574074,33 L10.648148,33 L10.648148,4 Z M6.574074,4 L4.5,4 L4.5,33 L6.574074,33 L6.574074,4 Z" id="形状结合" fill="#475A63"></path>
        <rect id="矩形备份-11" fill="#20C1FF" x="13.8636364" y="8" width="8.27272727" height="7" rx="2"></rect>
        <path d="M20.1363636,8 C21.2409331,8 22.1363636,8.8954305 22.1363636,10 L22.1363636,13 C22.1363636,14.1045695 21.2409331,15 20.1363636,15 L15.8636364,15 C14.7590669,15 13.8636364,14.1045695 13.8636364,13 L13.8636364,10 C13.8636364,8.8954305 14.7590669,8 15.8636364,8 L20.1363636,8 Z M20.1363636,9.5 L15.8636364,9.5 C15.587494,9.5 15.3636364,9.72385763 15.3636364,10 L15.3636364,13 C15.3636364,13.2761424 15.587494,13.5 15.8636364,13.5 L20.1363636,13.5 C20.412506,13.5 20.6363636,13.2761424 20.6363636,13 L20.6363636,10 C20.6363636,9.72385763 20.412506,9.5 20.1363636,9.5 Z" id="矩形备份-11" fill="#475A63" fill-rule="nonzero"></path>
        <path d="M20.1363636,7.5 L15.8636364,7.5 C14.4829245,7.5 13.3636364,8.61928813 13.3636364,10 L13.3636364,13 C13.3636364,14.3807119 14.4829245,15.5 15.8636364,15.5 L20.1363636,15.5 C21.5170755,15.5 22.6363636,14.3807119 22.6363636,13 L22.6363636,10 C22.6363636,8.61928813 21.5170755,7.5 20.1363636,7.5 Z M20.1363636,8.5 C20.9647908,8.5 21.6363636,9.17157288 21.6363636,10 L21.6363636,13 C21.6363636,13.8284271 20.9647908,14.5 20.1363636,14.5 L15.8636364,14.5 C15.0352092,14.5 14.3636364,13.8284271 14.3636364,13 L14.3636364,10 C14.3636364,9.17157288 15.0352092,8.5 15.8636364,8.5 L20.1363636,8.5 Z" id="矩形备份-11" fill="#FFFFFF" fill-rule="nonzero"></path>
        <g id="ups" transform="translate(7.990000, 18.970000)" fill-rule="nonzero">
            <path d="M6.77,7.04 C6.61,6.69 6.57,6.44 6.57,6 L6.57,1.63 L4.97,1.63 L4.97,5.46 C4.65,5.7 4.09,5.94 3.81,5.94 C3.38,5.94 3.1,5.67 3.1,5.28 L3.1,1.63 L1.5,1.63 L1.5,5.55 C1.5,6.5 2.15,7.16 3.18,7.16 C3.85,7.16 4.59,6.84 5.08,6.4 C5.1,6.63 5.16,6.84 5.27,7.04 L6.77,7.04 Z" id="路径" fill="#475A63"></path>
            <path d="M8.07,0.13 L0,0.13 L0,5.55 C0,7.35068058 1.34392698,8.66 3.18,8.66 L3.40189236,8.65321019 C3.69869053,8.63520183 3.99850519,8.58176348 4.29233288,8.49758903 L4.35,8.479 L4.38309317,8.54 L9.10501841,8.54 L8.13421171,6.41636036 C8.08470314,6.30806036 8.07289045,6.26711125 8.07052578,6.09682929 L8.07,0.13 Z M3.1,1.63 L3.1,5.28 C3.1,5.67 3.38,5.94 3.81,5.94 C4.09,5.94 4.65,5.7 4.97,5.46 L4.97,1.63 L6.57,1.63 L6.57,6 C6.57,6.44 6.61,6.69 6.77,7.04 L5.27,7.04 C5.16,6.84 5.1,6.63 5.08,6.4 C4.59,6.84 3.85,7.16 3.18,7.16 C2.15,7.16 1.5,6.5 1.5,5.55 L1.5,1.63 L3.1,1.63 Z" id="路径" fill="#FFFFFF"></path>
            <path d="M12.09,0 C14.4440779,0 16.05,1.86735124 16.05,4.34 C16.05,6.83316493 14.4375384,8.66 12.09,8.66 L11.994,8.657 L11.9732669,8.85039618 C11.9422373,9.10119879 11.9043614,9.33301946 11.8605502,9.52933286 L11.8147945,9.71319845 L11.5087103,10.81 L6.64467281,10.81 L7.35667796,8.8074855 C7.41575831,8.64132202 7.47,7.96330092 7.47,7.25 L7.47,0.13 L11.154,0.131 L11.1849019,0.121343228 C11.4068641,0.0616716024 11.6333541,0.0232518494 11.8614614,0.00777144957 L12.09,0 Z" id="路径" fill="#FFFFFF"></path>
            <path d="M10.37,9.31 C10.49,8.88 10.57,7.96 10.57,7.25 L10.57,6.64 C10.98,6.99 11.49,7.16 12.09,7.16 C13.55,7.16 14.55,6.06 14.55,4.34 C14.55,2.66 13.57,1.5 12.09,1.5 C11.56,1.5 11.01,1.73 10.57,2.13 L10.57,1.63 L8.97,1.63 L8.97,7.25 C8.97,7.92 8.93,8.86 8.77,9.31 L10.37,9.31 Z M10.57,3.33 C10.85,2.78 11.34,2.66 11.7,2.66 C12.41,2.66 13.02,3.4 13.02,4.34 C13.02,5.26 12.41,6.01 11.7,6.01 C11.34,6.01 10.85,5.89 10.57,5.34 L10.57,3.33 Z" id="形状" fill="#475A63"></path>
            <path d="M18.87,7.15 C19.98,7.1 20.76,6.43 20.76,5.44 C20.76,4.77 20.45,4.37 19.94,4.1 C19.68,3.97 19.35,3.84 18.95,3.71 C18.39,3.54 18.07,3.33 18.11,3.05 C18.15,2.81 18.4,2.69 18.85,2.69 C19.28,2.69 19.93,2.89 20.36,3.1 L20.36,1.81 C19.95,1.62 19.28,1.5 18.68,1.5 C17.31,1.5 16.56,2.22 16.56,3.11 C16.56,3.7 16.81,4.04 17.29,4.34 C17.53,4.49 17.85,4.63 18.26,4.74 C18.99,4.94 19.23,5.11 19.16,5.52 C19.13,5.68 18.96,5.86 18.55,5.89 C17.96,5.93 17.1,5.63 16.55,5.23 L16.55,6.67 C17.16,7.02 18.06,7.19 18.87,7.15 Z" id="路径" fill="#475A63"></path>
            <path d="M18.68,9.09494702e-13 L18.4748514,0.00417214645 C16.8480958,0.0707288095 15.5750731,0.92884894 15.1844576,2.23694107 L15.153,2.359 L15.05,2.28434493 L15.05,7.53871649 L15.8034958,7.97105015 C16.6651657,8.46545091 17.840339,8.70267533 18.9439839,8.64817435 C20.8162217,8.56385338 22.26,7.27688992 22.26,5.44 L22.253856,5.22992366 C22.2252637,4.74687917 22.0974323,4.31404787 21.88204,3.93726517 L21.859,3.9 L21.86,0.851884362 L20.9906915,0.44903409 C20.3686033,0.160749322 19.4900896,9.09494702e-13 18.68,9.09494702e-13 Z M18.68,1.5 C19.28,1.5 19.95,1.62 20.36,1.81 L20.36,3.1 C19.93,2.89 19.28,2.69 18.85,2.69 C18.4,2.69 18.15,2.81 18.11,3.05 C18.0733333,3.30666667 18.3391667,3.50451389 18.8150694,3.66664931 L18.95,3.71 C19.35,3.84 19.68,3.97 19.94,4.1 C20.45,4.37 20.76,4.77 20.76,5.44 C20.76,6.43 19.98,7.1 18.87,7.15 C18.06,7.19 17.16,7.02 16.55,6.67 L16.55,5.23 C17.1,5.63 17.96,5.93 18.55,5.89 C18.96,5.86 19.13,5.68 19.16,5.52 C19.225,5.13928571 19.0227041,4.9655102 18.4089942,4.78249636 L18.26,4.74 C17.85,4.63 17.53,4.49 17.29,4.34 C16.81,4.04 16.56,3.7 16.56,3.11 C16.56,2.22 17.31,1.5 18.68,1.5 Z" id="路径" fill="#FFFFFF"></path>
        </g>
    </g>
</svg>